# xmcd CD database file
#
# Track frame offsets:
#	150
#	13030
#	33771
#	45249
#	62172
#	76141
#	94677
#	114755
#	130663
#	141977
#	154773
#	167745
#	187221
#	211931
#	220820
#	245775
#
# Disc length: 3487 seconds
#
# Revision: 0
# Processed by: cddbd v1.5.2PL0 Copyright (c) Steve Scherf et al.
# Submitted via: CDex 1.70beta2
#
DISCID=d30d9d10
DTITLE=Gorman, Skip, and the Waddie Boys (04) - USA - Cty - Dogie Music
DYEAR=2004
DGENRE=Country
TTITLE0=The Old Chisholm Trail
TTITLE1=Streets of Laredo
TTITLE2=Steak of Fat, Steak of Lean
TTITLE3=Goodnight - Loving Trail
TTITLE4=There's A Brown Skin Gal Down the Road Somewhere
TTITLE5=Ain't Got No Use For the Womwn (Bury Me Out On the Praririe)
TTITLE6=Wyoming Home
TTITLE7=Cowboy Takes In A Square Dance
TTITLE8=Windy Bill (The Old Black Steer)
TTITLE9=Santa Fe Folks Festival
TTITLE10=La Golondrina (The Swallow)
TTITLE11=Bad Companions
TTITLE12=Utah Carroll
TTITLE13=Noches de Fiesta
TTITLE14=The Cowboy's Dream
TTITLE15=Buddies In the Saddle
EXTD=YEAR: 2004
EXTT0=
EXTT1=
EXTT2=
EXTT3=
EXTT4=
EXTT5=
EXTT6=
EXTT7=
EXTT8=
EXTT9=
EXTT10=
EXTT11=
EXTT12=
EXTT13=
EXTT14=
EXTT15=
PLAYORDER=
